ffmpeg started on 2016-11-26 at 12:21:26
Report written to "Output/NVENCh264/results/ffmpeg/crowd_run_2160p50ll3500k.log"
Command line:
Tools/ffmpeg/ffmpeg -benchmark -y -i Input/y4m/crowd_run_2160p50.y4m -c:v h264_nvenc -preset ll -b:v 3500k -an Output/NVENCh264/encoded/crowd_run_2160p50ll3500k.mkv
ffmpeg version N-82227-gdb23fde Copyright (c) 2000-2016 the FFmpeg developers
  built with gcc 5.4.0 (Ubuntu 5.4.0-6ubuntu1~16.04.2) 20160609
  configuration: --prefix=/home/jaroslav/ffmpeg_build --pkg-config-flags=--static --extra-cflags=-I/home/jaroslav/ffmpeg_build/include --extra-ldflags=-L/home/jaroslav/ffmpeg_build/lib --bindir=/home/jaroslav/bin --enable-gpl --enable-libass --enable-libfdk-aac --enable-libfreetype --enable-libmp3lame --enable-libopus --enable-libtheora --enable-libvorbis --enable-libvpx --enable-libx264 --enable-libx265 --enable-nvenc --enable-libmfx --enable-libxvid --enable-libgsm --enable-libopencore-amrnb --enable-version3 --enable-nonfree
  libavutil      55. 35.100 / 55. 35.100
  libavcodec     57. 66.101 / 57. 66.101
  libavformat    57. 57.100 / 57. 57.100
  libavdevice    57.  2.100 / 57.  2.100
  libavfilter     6. 66.100 /  6. 66.100
  libswscale      4.  3.100 /  4.  3.100
  libswresample   2.  4.100 /  2.  4.100
  libpostproc    54.  2.100 / 54.  2.100
Input #0, yuv4mpegpipe, from 'Input/y4m/crowd_run_2160p50.y4m':
  Duration: 00:00:10.00, start: 0.000000, bitrate: 4976642 kb/s
    Stream #0:0: Video: rawvideo (I420 / 0x30323449), yuv420p(progressive), 3840x2160, SAR 1:1 DAR 16:9, 50 fps, 50 tbr, 50 tbn, 50 tbc
[h264_nvenc @ 0x38dd1c0] The variable bitrate rate-control requires the 'qmin' and/or 'qmax' option set.
Output #0, matroska, to 'Output/NVENCh264/encoded/crowd_run_2160p50ll3500k.mkv':
  Metadata:
    encoder         : Lavf57.57.100
    Stream #0:0: Video: h264 (h264_nvenc) (Main) (H264 / 0x34363248), yuv420p, 3840x2160 [SAR 1:1 DAR 16:9], q=-1--1, 3500 kb/s, 50 fps, 1k tbn, 50 tbc
    Metadata:
      encoder         : Lavc57.66.101 h264_nvenc
    Side data:
      cpb: bitrate max/min/avg: 0/0/3500000 buffer size: 7000000 vbv_delay: -1
Stream mapping:
  Stream #0:0 -> #0:0 (rawvideo (native) -> h264 (h264_nvenc))
Press [q] to stop, [?] for help
frame=   10 fps=0.0 q=0.0 size=       0kB time=00:00:00.00 bitrate=N/A speed=   0x    frame=   20 fps= 20 q=0.0 size=       0kB time=00:00:00.00 bitrate=N/A speed=   0x    frame=   33 fps= 21 q=49.0 size=       1kB time=00:00:00.04 bitrate= 145.8kbits/s speed=0.0265x    frame=   36 fps= 17 q=49.0 size=       1kB time=00:00:00.10 bitrate=  59.2kbits/s speed=0.0486x    frame=   41 fps= 16 q=49.0 size=       1kB time=00:00:00.20 bitrate=  29.7kbits/s speed=0.0775x    frame=   59 fps= 19 q=49.0 size=       1kB time=00:00:00.56 bitrate=  10.7kbits/s speed=0.18x    frame=   77 fps= 21 q=49.0 size=       1kB time=00:00:00.92 bitrate=   6.5kbits/s speed=0.253x    frame=   87 fps= 13 q=49.0 size=       1kB time=00:00:01.12 bitrate=   5.3kbits/s speed=0.17x    frame=   88 fps=8.8 q=49.0 size=       1kB time=00:00:01.14 bitrate=   5.2kbits/s speed=0.114x    frame=   93 fps=8.7 q=49.0 size=       1kB time=00:00:01.24 bitrate=   4.8kbits/s speed=0.116x    frame=  105 fps=9.4 q=49.0 size=       1kB time=00:00:01.48 bitrate=   4.0kbits/s speed=0.132x    frame=  123 fps= 10 q=49.0 size=       1kB time=00:00:01.84 bitrate=   3.2kbits/s speed=0.157x    frame=  141 fps= 12 q=49.0 size=       1kB time=00:00:02.20 bitrate=   2.7kbits/s speed=0.18x    frame=  147 fps= 12 q=49.0 size=       1kB time=00:00:02.32 bitrate=   2.6kbits/s speed=0.182x    frame=  150 fps= 11 q=49.0 size=       1kB time=00:00:02.38 bitrate=   2.5kbits/s speed=0.176x    frame=  153 fps= 11 q=49.0 size=       1kB time=00:00:02.44 bitrate=   2.4kbits/s speed=0.17x    frame=  157 fps= 10 q=49.0 size=       1kB time=00:00:02.52 bitrate=   2.4kbits/s speed=0.167x    frame=  161 fps= 10 q=49.0 size=       1kB time=00:00:02.60 bitrate=   2.3kbits/s speed=0.163x    frame=  166 fps= 10 q=49.0 size=       1kB time=00:00:02.70 bitrate=   2.2kbits/s speed=0.164x    frame=  175 fps= 10 q=49.0 size=       1kB time=00:00:02.88 bitrate=   2.1kbits/s speed=0.168x    frame=  180 fps= 10 q=49.0 size=       1kB time=00:00:02.98 bitrate=   2.0kbits/s speed=0.169x    frame=  186 fps= 10 q=49.0 size=       1kB time=00:00:03.10 bitrate=   1.9kbits/s speed=0.171x    frame=  203 fps= 11 q=49.0 size=       1kB time=00:00:03.44 bitrate=   1.7kbits/s speed=0.184x    frame=  207 fps= 11 q=49.0 size=       1kB time=00:00:03.52 bitrate=   1.7kbits/s speed=0.179x    frame=  208 fps= 10 q=49.0 size=       1kB time=00:00:03.54 bitrate=   1.7kbits/s speed=0.175x    frame=  211 fps= 10 q=49.0 size=       1kB time=00:00:03.60 bitrate=   1.7kbits/s speed=0.172x    frame=  217 fps= 10 q=49.0 size=       1kB time=00:00:03.72 bitrate=   1.6kbits/s speed=0.172x    frame=  222 fps= 10 q=49.0 size=       1kB time=00:00:03.82 bitrate=   1.6kbits/s speed=0.173x    frame=  224 fps=9.6 q=49.0 size=       1kB time=00:00:03.86 bitrate=   1.5kbits/s speed=0.166x    frame=  229 fps=9.6 q=49.0 size=       1kB time=00:00:03.96 bitrate=   1.5kbits/s speed=0.167x    frame=  238 fps=9.8 q=49.0 size=       1kB time=00:00:04.14 bitrate=   1.4kbits/s speed=0.17x    frame=  239 fps=9.6 q=49.0 size=       1kB time=00:00:04.16 bitrate=   1.4kbits/s speed=0.167x    frame=  240 fps=9.4 q=49.0 size=       1kB time=00:00:04.18 bitrate=   1.4kbits/s speed=0.164x    frame=  245 fps=9.4 q=49.0 size=       1kB time=00:00:04.28 bitrate=   1.4kbits/s speed=0.164x    frame=  251 fps=9.3 q=49.0 size=       1kB time=00:00:04.40 bitrate=   1.4kbits/s speed=0.163x    frame=  254 fps=9.1 q=49.0 size=       1kB time=00:00:04.46 bitrate=   1.3kbits/s speed=0.16x    frame=  256 fps=9.0 q=49.0 size=       1kB time=00:00:04.50 bitrate=   1.3kbits/s speed=0.159x    frame=  260 fps=8.9 q=49.0 size=       1kB time=00:00:04.58 bitrate=   1.3kbits/s speed=0.157x    frame=  262 fps=8.8 q=49.0 size=       1kB time=00:00:04.62 bitrate=   1.3kbits/s speed=0.155x    frame=  264 fps=8.7 q=49.0 size=       1kB time=00:00:04.66 bitrate=   1.3kbits/s speed=0.153x    frame=  268 fps=8.6 q=49.0 size=       1kB time=00:00:04.74 bitrate=   1.3kbits/s speed=0.152x    frame=  271 fps=8.5 q=49.0 size=       1kB time=00:00:04.80 bitrate=   1.2kbits/s speed=0.15x    frame=  277 fps=8.5 q=49.0 size=       1kB time=00:00:04.92 bitrate=   1.2kbits/s speed=0.15x    frame=  282 fps=8.5 q=49.0 size=    3133kB time=00:00:05.02 bitrate=5111.2kbits/s speed=0.151x    frame=  284 fps=8.3 q=49.0 size=    3133kB time=00:00:05.06 bitrate=5070.8kbits/s speed=0.149x    frame=  297 fps=8.6 q=49.0 size=    3133kB time=00:00:05.32 bitrate=4823.0kbits/s speed=0.154x    frame=  302 fps=8.6 q=49.0 size=    3133kB time=00:00:05.42 bitrate=4734.1kbits/s speed=0.155x    frame=  303 fps=8.5 q=49.0 size=    3133kB time=00:00:05.44 bitrate=4716.7kbits/s speed=0.152x    frame=  307 fps=8.5 q=49.0 size=    3133kB time=00:00:05.52 bitrate=4648.3kbits/s speed=0.152x    frame=  308 fps=8.3 q=49.0 size=    3133kB time=00:00:05.54 bitrate=4631.5kbits/s speed=0.149x    frame=  310 fps=8.2 q=49.0 size=    3133kB time=00:00:05.58 bitrate=4598.3kbits/s speed=0.148x    frame=  312 fps=8.1 q=49.0 size=    3133kB time=00:00:05.62 bitrate=4565.6kbits/s speed=0.146x    frame=  321 fps=8.2 q=49.0 size=    3133kB time=00:00:05.80 bitrate=4423.9kbits/s speed=0.149x    frame=  339 fps=8.6 q=49.0 size=    3133kB time=00:00:06.16 bitrate=4165.4kbits/s speed=0.156x    frame=  357 fps=8.9 q=49.0 size=    3133kB time=00:00:06.52 bitrate=3935.5kbits/s speed=0.163x    frame=  375 fps=9.2 q=49.0 size=    3133kB time=00:00:06.88 bitrate=3729.6kbits/s speed=0.17x    frame=  393 fps=9.6 q=49.0 size=    3133kB time=00:00:07.24 bitrate=3544.2kbits/s speed=0.176x    frame=  411 fps=9.9 q=49.0 size=    3133kB time=00:00:07.60 bitrate=3376.3kbits/s speed=0.183x    frame=  417 fps=9.9 q=49.0 size=    3133kB time=00:00:07.72 bitrate=3323.8kbits/s speed=0.183x    frame=  435 fps= 10 q=49.0 size=    3133kB time=00:00:08.08 bitrate=3175.8kbits/s speed=0.189x    frame=  453 fps= 10 q=49.0 size=    3133kB time=00:00:08.44 bitrate=3040.3kbits/s speed=0.196x    frame=  471 fps= 11 q=49.0 size=    3133kB time=00:00:08.80 bitrate=2916.0kbits/s speed=0.201x    frame=  489 fps= 11 q=49.0 size=    3133kB time=00:00:09.16 bitrate=2801.4kbits/s speed=0.207x    frame=  495 fps= 11 q=49.0 size=    3133kB time=00:00:09.28 bitrate=2765.1kbits/s speed=0.208x    frame=  497 fps= 11 q=49.0 size=    3133kB time=00:00:09.32 bitrate=2753.3kbits/s speed=0.206x    frame=  500 fps= 11 q=49.0 Lsize=    6375kB time=00:00:09.98 bitrate=5232.2kbits/s speed=0.219x    
video:6371kB audio:0kB subtitle:0kB other streams:0kB global headers:0kB muxing overhead: 0.066729%
bench: utime=1.316s
bench: maxrss=1408996kB
